<?xml version="1.0" encoding="UTF-8"?>
<svg id="Layer_1" data-name="Layer 1" xmlns="http://www.w3.org/2000/svg" xmlns:xlink="http://www.w3.org/1999/xlink" viewBox="0 0 350 294.05">
  <defs>
    <style>
      .cls-1 {
        clip-path: url(#clippath);
      }

      .cls-2, .cls-3, .cls-4, .cls-5, .cls-6 {
        fill: none;
      }

      .cls-2, .cls-7, .cls-8 {
        stroke-width: 0px;
      }

      .cls-9 {
        font-family: AreaNormal-Black, 'Area Normal';
        font-size: 81.01px;
        font-weight: 800;
      }

      .cls-9, .cls-7 {
        fill: #231f20;
      }

      .cls-3 {
        stroke-width: 6.23px;
      }

      .cls-3, .cls-4, .cls-5 {
        stroke: #231f20;
      }

      .cls-3, .cls-4, .cls-5, .cls-6 {
        stroke-miterlimit: 10;
      }

      .cls-4 {
        stroke-width: 2.34px;
      }

      .cls-10 {
        clip-path: url(#clippath-1);
      }

      .cls-5, .cls-6 {
        stroke-width: 12.46px;
      }

      .cls-6 {
        stroke: #ee3455;
      }

      .cls-8 {
        fill: #ee3455;
      }
    </style>
    <clipPath id="clippath">
      <rect class="cls-2" width="350" height="294.05"/>
    </clipPath>
    <clipPath id="clippath-1">
      <rect class="cls-2" y="0" width="350" height="294.05"/>
    </clipPath>
  </defs>
  <g id="Artwork_10" data-name="Artwork 10">
    <g class="cls-1">
      <g class="cls-10">
        <text class="cls-9" transform="translate(0 72.1)"><tspan x="0" y="0">OUR</tspan></text>
        <text class="cls-9" transform="translate(0 169.3)"><tspan x="0" y="0">SOCIAL</tspan></text>
        <text class="cls-9" transform="translate(0 266.51)"><tspan x="0" y="0">HUB</tspan></text>
        <path class="cls-7" d="m25.02,65.33s41.86,7.33,40.81,59.71l19.68-16.32s-33.6-13.75-26.44-58.83c0,0-41.08,12.36-34.05,15.44"/>
        <path class="cls-5" d="m25.02,65.33s41.86,7.33,40.81,59.71l19.68-16.32s-33.6-13.75-26.44-58.83c0,0-41.08,12.36-34.05,15.44Z"/>
        <path class="cls-7" d="m108.18,137.4c0,13.74-10.15,24.88-22.67,24.88s-22.67-11.14-22.67-24.88,10.15-24.88,22.67-24.88,22.67,11.14,22.67,24.88"/>
        <path class="cls-7" d="m59.07,41.8c0,13.74-10.15,24.88-22.67,24.88s-22.67-11.14-22.67-24.88,10.15-24.88,22.67-24.88,22.67,11.14,22.67,24.88"/>
        <path class="cls-7" d="m132.62,148.2c1.02-.57,2.03-1.14,3.05-1.72v-22.41s-12.5,18.84-23.29,0v11.83c1.76-.12,3.65.72,4.45,2.28,1.13,2.21,2.32,4.39,3.52,6.56,3.18-.77,7.29-.21,12.27,3.46"/>
        <path class="cls-3" d="m132.62,148.2c1.02-.57,2.03-1.14,3.05-1.72v-22.41s-12.5,18.84-23.29,0v11.83c1.76-.12,3.65.72,4.45,2.28,1.13,2.21,2.32,4.39,3.52,6.56,3.18-.77,7.29-.21,12.27,3.46Z"/>
        <path class="cls-7" d="m167.97,163.62l-30.46-5.97c-.11.07-.22.14-.33.21-.06.13-.13.25-.2.37,3.87,3.17,14.09,14.87-.24,42.7l26.01,3.23s-25.28-30.7,5.22-40.54"/>
        <path class="cls-3" d="m167.97,163.62l-30.46-5.97c-.11.07-.22.14-.33.21-.06.13-.13.25-.2.37,3.87,3.17,14.09,14.87-.24,42.7l26.01,3.23s-25.28-30.7,5.22-40.54Z"/>
        <path class="cls-8" d="m254.41,233.58c0,14.73-11.94,26.68-26.68,26.68s-26.68-11.94-26.68-26.68,11.94-26.68,26.68-26.68,26.68,11.94,26.68,26.68"/>
        <circle class="cls-6" cx="227.74" cy="233.58" r="26.68"/>
        <path class="cls-7" d="m235.12,224.57c.03-3.55,1.37-6.42,2.99-6.41,1.62.01,2.91,2.9,2.88,6.46-.03,3.55-1.37,6.42-2.99,6.41-1.62-.01-2.91-2.9-2.88-6.46"/>
        <path class="cls-7" d="m214.49,224.57c.03-3.55,1.37-6.42,2.99-6.41,1.62.01,2.91,2.9,2.88,6.46-.03,3.55-1.37,6.42-2.99,6.41-1.62-.01-2.91-2.9-2.88-6.46"/>
        <path class="cls-4" d="m207.35,237.32s3.74,16.48,20.21,16.91c0,0,13.97,1.43,20.55-16.91"/>
      </g>
    </g>
  </g>
</svg>