<?xml version="1.0" encoding="UTF-8"?>
<svg id="Layer_1" data-name="Layer 1" xmlns="http://www.w3.org/2000/svg" xmlns:xlink="http://www.w3.org/1999/xlink" viewBox="0 0 317.52 266.77">
  <defs>
    <style>
      .cls-1 {
        clip-path: url(#clippath);
      }

      .cls-2, .cls-3, .cls-4, .cls-5, .cls-6 {
        fill: none;
      }

      .cls-2, .cls-7, .cls-8 {
        stroke-width: 0px;
      }

      .cls-9 {
        clip-path: url(#clippath-1);
      }

      .cls-3 {
        stroke-width: 5.65px;
      }

      .cls-3, .cls-4, .cls-5, .cls-6 {
        stroke-miterlimit: 10;
      }

      .cls-3, .cls-4, .cls-6 {
        stroke: #231f20;
      }

      .cls-4 {
        stroke-width: 2.12px;
      }

      .cls-7, .cls-10 {
        fill: #231f20;
      }

      .cls-8 {
        fill: #ee3455;
      }

      .cls-10 {
        font-family: AreaNormal-Black, 'Area Normal';
        font-size: 73.49px;
        font-weight: 800;
      }

      .cls-5 {
        stroke: #ee3455;
      }

      .cls-5, .cls-6 {
        stroke-width: 11.31px;
      }
    </style>
    <clipPath id="clippath">
      <rect class="cls-2" y="0" width="317.52" height="266.77"/>
    </clipPath>
    <clipPath id="clippath-1">
      <rect class="cls-2" y="0" width="317.52" height="266.77"/>
    </clipPath>
  </defs>
  <g id="Artwork_10" data-name="Artwork 10">
    <g class="cls-1">
      <g class="cls-9">
        <text class="cls-10" transform="translate(0 65.4)"><tspan x="0" y="0">OUR</tspan></text>
        <text class="cls-10" transform="translate(0 153.59)"><tspan x="0" y="0">SOCIAL</tspan></text>
        <text class="cls-10" transform="translate(0 241.78)"><tspan x="0" y="0">HUB</tspan></text>
        <path class="cls-7" d="m22.7,59.26s37.98,6.65,37.03,54.17l17.85-14.81s-30.48-12.47-23.99-53.37c0,0-37.26,11.21-30.89,14.01"/>
        <path class="cls-6" d="m22.7,59.26s37.98,6.65,37.03,54.17l17.85-14.81s-30.48-12.47-23.99-53.37c0,0-37.26,11.21-30.89,14.01Z"/>
        <path class="cls-7" d="m98.14,124.65c0,12.46-9.21,22.57-20.57,22.57s-20.57-10.1-20.57-22.57,9.21-22.57,20.57-22.57,20.57,10.1,20.57,22.57"/>
        <path class="cls-7" d="m53.59,37.92c0,12.46-9.21,22.57-20.57,22.57s-20.57-10.1-20.57-22.57,9.21-22.57,20.57-22.57,20.57,10.1,20.57,22.57"/>
        <path class="cls-7" d="m120.32,134.45c.92-.51,1.85-1.04,2.76-1.56v-20.33s-11.34,17.09-21.13,0v10.73c1.59-.11,3.31.65,4.03,2.07,1.03,2,2.1,3.98,3.19,5.95,2.89-.7,6.61-.2,11.13,3.13"/>
        <path class="cls-3" d="m120.32,134.45c.92-.51,1.85-1.04,2.76-1.56v-20.33s-11.34,17.09-21.13,0v10.73c1.59-.11,3.31.65,4.03,2.07,1.03,2,2.1,3.98,3.19,5.95,2.89-.7,6.61-.2,11.13,3.13Z"/>
        <path class="cls-7" d="m152.38,148.44l-27.63-5.42c-.1.06-.2.13-.3.19-.05.12-.12.22-.18.34,3.51,2.87,12.78,13.49-.22,38.74l23.59,2.93s-22.93-27.86,4.73-36.78"/>
        <path class="cls-3" d="m152.38,148.44l-27.63-5.42c-.1.06-.2.13-.3.19-.05.12-.12.22-.18.34,3.51,2.87,12.78,13.49-.22,38.74l23.59,2.93s-22.93-27.86,4.73-36.78Z"/>
        <path class="cls-8" d="m230.81,211.9c0,13.37-10.83,24.2-24.2,24.2s-24.2-10.83-24.2-24.2,10.83-24.2,24.2-24.2,24.2,10.83,24.2,24.2"/>
        <circle class="cls-5" cx="206.6" cy="211.9" r="24.2"/>
        <path class="cls-7" d="m213.3,203.73c.03-3.23,1.24-5.83,2.71-5.81,1.47.01,2.64,2.63,2.61,5.86-.03,3.23-1.24,5.83-2.71,5.81-1.47-.01-2.64-2.63-2.61-5.86"/>
        <path class="cls-7" d="m194.59,203.73c.03-3.23,1.24-5.83,2.71-5.81,1.47.01,2.64,2.63,2.61,5.86-.03,3.23-1.24,5.83-2.71,5.81-1.47-.01-2.64-2.63-2.61-5.86"/>
        <path class="cls-4" d="m188.11,215.3s3.39,14.95,18.34,15.34c0,0,12.68,1.3,18.65-15.34"/>
      </g>
    </g>
  </g>
</svg>